<svg xmlns="http://www.w3.org/2000/svg" data-name="Icon tool set" viewBox="0 0 64 80" x="0px" y="0px" style="
    /* background-color: cornflowerblue; */
    fill: white">
    <title>tool app icon</title>
    <path
        d="M46.49,52.58H15.63A9.34,9.34,0,0,1,6.2,43.76a9.09,9.09,0,0,1,9.09-9.37c.29,0,.56,0,.84,0a1.56,1.56,0,0,0,1.59-1.14,14.17,14.17,0,0,1,1.5-3.36,14.64,14.64,0,0,1,9.93-6.79,13.3,13.3,0,0,1,2.58-.24,14.57,14.57,0,0,1,12.52,7,1.63,1.63,0,0,0,1.61.78c.3,0,.65,0,1,0a11,11,0,0,1,7.53,3l.13.12a11.1,11.1,0,0,1,3.29,8.59h0A11.17,11.17,0,0,1,46.49,52.58ZM15.29,36.39A7.1,7.1,0,0,0,8.2,43.7a7.33,7.33,0,0,0,7.43,6.88H46.49a9.16,9.16,0,0,0,9.29-8.37,9,9,0,0,0-2.68-7L53,35.11a9,9,0,0,0-6.19-2.46c-.25,0-.53,0-.78,0a3.64,3.64,0,0,1-3.52-1.74,12.57,12.57,0,0,0-10.8-6.05,12.22,12.22,0,0,0-2.22.2A12.64,12.64,0,0,0,20.93,31a12.4,12.4,0,0,0-1.3,2.91A3.57,3.57,0,0,1,16,36.42C15.75,36.4,15.53,36.39,15.29,36.39Zm41.49,5.88h0Z" />
    <path
        d="M53.82,35.87l-.8-.76a9,9,0,0,0-6.19-2.46c-.25,0-.53,0-.78,0a3.64,3.64,0,0,1-3.52-1.74,12.57,12.57,0,0,0-10.8-6.05,12.22,12.22,0,0,0-2.22.2l-1.38.27.2-1.39A14.66,14.66,0,0,1,57.5,26.09a14.56,14.56,0,0,1-3,8.9Zm-7-5.22a11,11,0,0,1,6.68,2.26,12.49,12.49,0,0,0,2-6.82,12.66,12.66,0,0,0-24.93-3.16c.38,0,.77,0,1.16,0a14.57,14.57,0,0,1,12.52,7,1.63,1.63,0,0,0,1.61.78C46.16,30.66,46.51,30.65,46.83,30.65Z" />
    <path d="M25.83,14.42H8.67a1,1,0,0,1,0-2H25.83a1,1,0,0,1,0,2Z" />
    <path d="M23.58,19.66H8.67a1,1,0,1,1,0-2H23.58a1,1,0,0,1,0,2Z" />
    <path d="M18.75,24.89H8.67a1,1,0,0,1,0-2H18.75a1,1,0,0,1,0,2Z" />
</svg>